<?xml version="1.0" standalone="no"?><!DOCTYPE svg PUBLIC "-//W3C//DTD SVG 1.1//EN" "http://www.w3.org/Graphics/SVG/1.1/DTD/svg11.dtd"><svg t="1782290187416" class="icon" viewBox="0 0 1024 1024" version="1.1" xmlns="http://www.w3.org/2000/svg" p-id="2004" width="16" height="16" xmlns:xlink="http://www.w3.org/1999/xlink"><path d="M267.093333 158.08C206.506667 128 170.666667 202.453333 168.32 251.946667c0 27.733333 7.68 59.946667 36.693333 69.546666s53.76-11.946667 65.28-37.76a73.386667 73.386667 0 0 0-7.68-78.08 60.586667 60.586667 0 0 0-75.946666-12.373333c-40.32 21.333333-68.906667 92.16-30.293334 128a42.666667 42.666667 0 0 0 45.226667 8.533333 69.333333 69.333333 0 0 0 31.146667-27.946666 141.226667 141.226667 0 0 0 25.6-72.533334 60.586667 60.586667 0 0 0-40.32-65.493333A66.56 66.56 0 0 0 149.333333 200.96a48.853333 48.853333 0 0 0 21.333334 74.24c30.08 8.746667 56.533333-19.413333 64-46.293333 7.466667-30.293333-8.746667-67.2-44.16-65.92a76.8 76.8 0 0 0-59.306667 42.666666A96.426667 96.426667 0 0 0 121.6 277.333333 46.506667 46.506667 0 0 0 192 305.493333a77.866667 77.866667 0 0 0 34.346667-67.84A52.906667 52.906667 0 0 0 167.253333 187.733333a56.32 56.32 0 0 0-43.946666 62.72c1.92 27.733333 13.226667 64 47.36 64 30.72 0 48.64-31.36 58.24-56.32a61.653333 61.653333 0 0 0-11.733334-69.12 53.333333 53.333333 0 0 0-78.08 13.013334A94.08 94.08 0 0 0 128 280.106667a46.08 46.08 0 0 0 75.946667 22.826666 59.093333 59.093333 0 0 0 11.093333-77.653333 55.466667 55.466667 0 0 0-71.253333-13.226667 68.053333 68.053333 0 0 0-30.72 66.346667c2.56 26.24 15.36 60.16 43.733333 68.053333 31.786667 8.746667 56.32-21.333333 64-48.426666a64 64 0 0 0-23.253333-71.893334 51.2 51.2 0 0 0-73.813334 12.16 90.026667 90.026667 0 0 0 7.253334 78.293334A52.906667 52.906667 0 0 0 205.653333 341.333333c22.613333-13.226667 45.866667-48.64 30.72-74.453333s-56.32-19.84-76.8-1.066667A52.906667 52.906667 0 0 0 154.666667 341.333333a77.013333 77.013333 0 0 0 66.133333 17.066667 207.146667 207.146667 0 0 0 72.533333-22.826667 32.213333 32.213333 0 0 0-7.68-58.24 257.28 257.28 0 0 0-97.28 0 32.213333 32.213333 0 0 0 0 61.866667c59.946667 8.746667 120.96 17.28 180.053334 0a32.64 32.64 0 0 0 23.466666-30.933333 33.92 33.92 0 0 0-23.466666-30.933334c-43.946667-17.92-93.013333-6.4-136.96 6.186667A32.426667 32.426667 0 0 0 224 341.333333a202.666667 202.666667 0 0 0 130.133333 16.64c29.866667-5.973333 30.933333-56.32 0-61.653333a417.28 417.28 0 0 0-133.333333-1.28 31.786667 31.786667 0 0 0-23.466667 30.72 32.853333 32.853333 0 0 0 23.466667 30.933333 386.346667 386.346667 0 0 0 159.36 9.6 32 32 0 0 0 21.333333-39.253333A32.64 32.64 0 0 0 362.666667 304.213333a310.613333 310.613333 0 0 1-125.226667-9.6v61.653334a315.733333 315.733333 0 0 1 99.2 1.28v-61.653334a132.693333 132.693333 0 0 1-80.64-10.24l-7.68 58.453334a370.986667 370.986667 0 0 1 52.053333-12.16 90.88 90.88 0 0 1 50.773334 6.186666V277.333333a336.64 336.64 0 0 1-145.92 0v61.866667a170.666667 170.666667 0 0 1 64 1.066667l-7.466667-58.666667a131.84 131.84 0 0 1-55.04 15.36h-6.826667c3.2 0 2.133333 0 0 0s-1.92-1.706667 0 0 2.773333 2.346667 3.626667 4.053333a21.333333 21.333333 0 0 1 1.706667 10.026667c0 5.333333-2.346667 1.28 0 2.346667h1.493333c1.706667 0 1.92-1.066667 0 0-5.973333 3.84-12.586667 2.133333-19.84-5.333334l-8.32-14.08v2.133334V277.333333c2.133333-2.986667 2.133333-2.56 0 1.28l-2.56 4.693334c-1.28 1.706667-1.28 1.92 0 0-2.986667 2.773333-3.2 3.413333-1.066667 1.706666h1.92a16 16 0 0 1 9.6 2.346667c3.84 4.48 4.693333 5.333333 2.773334 2.346667l-2.773334-4.906667a60.8 60.8 0 0 1-4.053333-16v-3.626667c1.066667-11.306667-3.626667-6.4-14.08 14.293334-3.626667 0-4.48 0-7.68-1.066667 5.333333 1.28 0 1.706667 0-1.28q2.773333 5.12 0 0c0-2.133333 0-2.133333 0 0v2.56c-1.28 3.2-4.48 5.973333-5.546667 9.173333 2.773333-8.96 26.026667-7.68 27.946667 1.28a48.853333 48.853333 0 0 0-3.413333-7.466666 42.666667 42.666667 0 0 1-2.133334-5.333334c0-4.053333-1.066667-5.12 0-3.2s0-11.733333 0-5.546666c1.066667-3.413333 1.28-4.266667 0-2.346667s0 1.28 1.493334-1.92l-4.693334 3.626667c-4.053333 0-4.266667 0 0 0a6.826667 6.826667 0 0 1-4.48 0c-5.76-2.133333-4.906667-6.613333-7.466666-11.52a2.986667 2.986667 0 0 1 0-2.346667l-1.706667 1.92c-1.706667-6.826667 29.653333-3.413333 29.44 7.04 0-6.826667-2.56-10.453333-1.066667-17.066667 0 0 3.2-9.6 1.493334-5.76 3.626667-8.106667 1.493333 0 0 0a10.453333 10.453333 0 0 1-10.026667 0l-6.4-4.053333c-3.626667-8.106667-4.693333-9.386667-2.986667-4.266667 0-3.413333 0-3.413333 0 0v-2.346666a57.173333 57.173333 0 0 1-1.493333 5.76c-2.133333 6.826667 0 0-2.56 5.973333a83.413333 83.413333 0 0 1-5.546667 9.386667c-4.48 7.253333 0 0 0 0h17.066667a15.786667 15.786667 0 0 1 10.24 8.746666c0-2.346667-1.28-4.906667-1.706667-7.253333s-1.493333-10.453333 0-10.453333-3.2 4.906667-3.626666 5.333333a15.36 15.36 0 0 1-18.773334 0c-2.346667-2.986667 0-4.693333-1.706666-7.466667 0 2.986667-1.706667 5.76-3.84 9.173334l-1.92 3.2c1.493333-2.346667 0-1.92-1.493334 0 8.533333-6.826667 17.493333-4.906667 27.093334 5.546666 0 3.413333 0 3.413333 0 0v-7.68c0-7.04-1.493333 2.346667 0-4.48a41.386667 41.386667 0 0 1 9.173333-13.866666l3.413333-3.626667c3.413333-1.92 3.84-2.346667 1.493334-1.28-15.786667 0-23.466667-5.973333-23.253334-16.213333v1.706666c-1.28 3.626667-1.28 4.266667 0 1.706667-1.92 6.613333-1.493333 0 1.28 0H192c5.546667 0 16 19.2 11.946667 20.053333 0 1.92 0 1.28 1.493333-1.92l1.493333-2.133333a32.853333 32.853333 0 0 1 3.626667-4.053333c1.493333-1.493333 1.706667-1.706667 0 0s-15.36-3.413333-15.36-3.626667a5.333333 5.333333 0 0 1-1.706667-2.986667v10.453334a85.333333 85.333333 0 0 1-6.613333 22.613333 110.506667 110.506667 0 0 1-8.96 16.213333 31.146667 31.146667 0 0 1-3.413333 4.053334c-1.706667 1.493333-1.493333 1.493333 0 0 16.213333-4.266667 25.386667-1.28 27.733333 8.96L202.666667 277.333333v-7.68c0 5.12 1.493333-4.693333 1.493333-4.906666a50.346667 50.346667 0 0 1 6.4-11.093334c2.986667-2.986667 2.773333-3.413333 6.186667-5.12 3.84 0 4.693333-1.28 1.92 0a21.333333 21.333333 0 0 1-4.906667-2.56c2.56 2.773333 2.773333 2.986667 0 0s0-2.56 0 0 0 1.92 0 0v2.56c0-2.346667-2.133333 8.96-1.28 6.4a57.173333 57.173333 0 0 1-5.546667 10.026667 16 16 0 0 1 21.333334-2.773333c5.12 2.773333 4.266667 5.333333 4.48 0v-6.826667A59.946667 59.946667 0 0 1 234.666667 234.666667a65.28 65.28 0 0 1 8.32-18.56c1.92-3.2 2.346667-3.626667 0-1.28l2.133333-2.346667c-5.12 1.706667-4.48 3.84-11.946667 0a32 32 0 0 0 32.426667-55.253333z" fill="#89AA66" p-id="2005"></path><path d="M313.386667 332.586667a253.013333 253.013333 0 0 0-12.373334 30.08 52.48 52.48 0 0 0-2.346666 33.066666 38.186667 38.186667 0 0 0 56.533333 22.613334 43.733333 43.733333 0 0 0 13.44-10.666667 66.56 66.56 0 0 0 10.24-15.36 58.88 58.88 0 0 0 6.186667-23.253333 39.893333 39.893333 0 0 0-5.333334-22.613334 38.826667 38.826667 0 0 0-54.4-13.013333 53.333333 53.333333 0 0 0-13.226666 11.733333 57.813333 57.813333 0 0 0-13.653334 21.333334 37.12 37.12 0 0 0 9.386667 35.626666 42.666667 42.666667 0 0 0 28.16 11.733334 67.413333 67.413333 0 0 0 35.84-10.453334 155.52 155.52 0 0 0 26.026667-19.413333l-50.133334-38.4a168.32 168.32 0 0 0-9.386666 24.32 42.666667 42.666667 0 0 0 0 21.333333A36.266667 36.266667 0 0 0 362.666667 416.213333a42.666667 42.666667 0 0 0 34.56-6.4 60.16 60.16 0 0 0 21.333333-21.333333 39.68 39.68 0 0 0 3.626667-28.8 35.2 35.2 0 0 0-24.32-24.533333 38.186667 38.186667 0 0 0-42.666667 18.133333 46.72 46.72 0 0 0-6.4 21.333333A34.56 34.56 0 0 0 364.8 405.333333a42.666667 42.666667 0 0 0 21.333333 5.12 54.4 54.4 0 0 0 23.466667-5.12l-38.826667-51.2a42.666667 42.666667 0 0 0-11.946666 27.52 33.493333 33.493333 0 0 0 1.28 11.306667A35.84 35.84 0 0 0 384 418.773333a34.986667 34.986667 0 0 0 21.333333-1.706666 30.72 30.72 0 0 0 15.36-13.013334 36.693333 36.693333 0 0 0 3.2-24.746666v-2.133334a32 32 0 0 0-39.466666-21.333333 31.36 31.36 0 0 0-18.986667 14.72 33.92 33.92 0 0 0-3.2 24.533333v2.133334l58.453333-24.746667v-1.28l3.2 7.68a4.906667 4.906667 0 0 1 0-2.346667l1.066667 8.533334v-2.56l-1.066667 8.533333a4.906667 4.906667 0 0 1 0-2.346667l-3.2 7.68a5.333333 5.333333 0 0 1 0-1.493333l-5.12 6.613333 1.066667-1.28a32 32 0 0 0 2.56-42.666666 30.72 30.72 0 0 0-16.64-11.52l-8.533333-1.066667a30.293333 30.293333 0 0 0-16 4.48h-1.066667l7.68-3.413333a15.573333 15.573333 0 0 1-4.266667 1.066666l8.533334-1.066666H384l8.533333 1.066666h-2.773333l7.466667 3.2 6.613333 4.906667 8.32 14.08 1.066667 8.32-1.066667 8.533333a16.64 16.64 0 0 1 1.066667-2.986666l-3.2 7.68 1.28-2.773334-4.906667 6.613334 1.28-1.706667-6.4 5.12h1.28l-7.466667 3.2h1.493334l-8.533334 1.066667h1.493334l-8.533334-1.066667-7.68-3.2-6.4-4.906667L362.666667 384l-3.2-7.466667a2.986667 2.986667 0 0 1 0 1.493334l-1.28-8.533334 1.28-8.32v1.706667l3.413333-7.68a27.093333 27.093333 0 0 1-1.493333 2.56l4.906666-6.4a35.413333 35.413333 0 0 1-5.76 5.546667l6.613334-4.906667a47.573333 47.573333 0 0 1-7.04 4.266667l7.68-3.2h-3.2l8.533333-1.066667h-1.706667l8.533334 1.28 7.466666 3.2 6.613334 4.906667 4.906666 6.4 3.2 7.68a4.053333 4.053333 0 0 1 0-1.706667l1.28 8.533333-1.28 8.533334a90.24 90.24 0 0 1 5.76-17.706667l-3.2 7.68s0-1.493333 1.066667-2.133333a23.893333 23.893333 0 0 0 3.84-11.946667 26.026667 26.026667 0 0 0 0-12.8 34.773333 34.773333 0 0 0-11.52-16.64 31.573333 31.573333 0 0 0-19.413333-6.826667 36.266667 36.266667 0 0 0-22.613334 9.386667l-10.026666 8.32 6.613333-5.12a88.106667 88.106667 0 0 1-15.36 9.6l7.68-3.413333a42.666667 42.666667 0 0 1-10.88 3.2l8.533333-1.066667h-4.053333l8.533333 1.28h-2.346666l7.68 3.2-1.92-1.066667 6.4 4.906667v-1.066667l4.906666 6.613334 3.2 7.68a2.986667 2.986667 0 0 1 0-1.493334l1.066667 8.533334-1.066667 8.533333a5.973333 5.973333 0 0 1 0-1.92l-3.2 7.68a18.346667 18.346667 0 0 1 2.133334-3.413333l-4.906667 6.4A65.28 65.28 0 0 1 362.666667 384l-6.4 5.12a12.8 12.8 0 0 1 3.2-1.92l-7.68 3.2h1.92l-8.533334 1.066667a2.346667 2.346667 0 0 1 1.706667 0l-8.533333-1.28h1.706666l-7.68-3.2a1.92 1.92 0 0 1 1.28 0l-6.4-5.12 1.066667 1.066666-5.12-6.4a2.773333 2.773333 0 0 1 0 1.28l-3.2-7.68a12.16 12.16 0 0 1 0 2.986667l-1.28-8.533333a13.013333 13.013333 0 0 1 0 4.053333v-8.533333a21.333333 21.333333 0 0 1-1.706667 6.186666l3.2-7.466666a42.666667 42.666667 0 0 1-4.693333 7.893333l5.12-6.4a37.333333 37.333333 0 0 1-4.906667 5.12l6.4-5.12-2.56 1.493333 7.68-3.2h-2.773333l8.533333-1.066666h-1.92l8.533334 1.066666a3.413333 3.413333 0 0 1-1.92 0l7.68 3.413334h-1.28l6.613333 4.906666a2.56 2.56 0 0 1-1.066667-1.066666l5.12 6.613333v-1.28l3.2 7.68a15.786667 15.786667 0 0 1 0-2.986667l1.28 8.533334a12.8 12.8 0 0 1 0-4.053334l-1.066666 8.533334a85.333333 85.333333 0 0 1 7.04-21.333334l-3.2 7.68c1.493333-3.626667 3.2-7.253333 4.906666-10.666666a32 32 0 0 0-36.053333-47.146667 32.426667 32.426667 0 0 0-19.2 14.72z" fill="#89AA66" p-id="2006"></path><path d="M427.946667 343.68a542.72 542.72 0 0 1 69.333333-12.586667l-8.533333-62.933333L376.533333 298.666667c-40.32 11.306667-23.04 68.906667 17.066667 61.866666a527.36 527.36 0 0 0 91.733333-25.6c37.76-14.506667 23.68-72.32-17.066666-61.653333a659.2 659.2 0 0 0-89.6 27.733333 33.493333 33.493333 0 0 0-23.466667 30.933334 32.426667 32.426667 0 0 0 23.466667 30.72 101.333333 101.333333 0 0 0 37.546666 3.413333L388.48 320l-13.226667 21.333333c-18.346667 30.506667 25.813333 66.56 50.346667 38.826667 8.32-9.386667 14.933333-26.666667 26.453333-32.213333a103.466667 103.466667 0 0 1 37.12-4.693334 497.493333 497.493333 0 0 0 112-17.066666 32 32 0 0 0-8.533333-62.72 1533.44 1533.44 0 0 0-159.786667 10.24 32.64 32.64 0 0 0-31.573333 27.733333 32.213333 32.213333 0 0 0 23.04 35.2 502.613333 502.613333 0 0 0 150.613333 9.173333v-64l-143.786666 10.666667a32 32 0 0 0 0 64q104.746667 3.2 209.28-1.706667a32 32 0 0 0 8.533333-62.72 346.24 346.24 0 0 0-143.786667-16.213333 32.213333 32.213333 0 0 0-29.226666 19.626667 31.36 31.36 0 0 0 6.613333 34.986666c28.586667 22.613333 71.466667 25.173333 106.666667 30.72 39.466667 6.186667 79.146667 10.666667 119.04 13.013334s41.173333-61.44 0-64c-32-1.92-64-4.906667-96-9.813334-16.426667-2.56-32.64-5.333333-48.853334-8.533333-8.106667-1.706667-16.213333-3.2-24.106666-5.12l-10.24-2.346667c-5.333333-1.92-5.76-1.706667-1.28 0l-22.613334 54.826667a297.173333 297.173333 0 0 1 126.72 13.866667l8.533334-64q-104.533333 4.693333-209.28 1.706666v64l143.786666-10.666666a32.853333 32.853333 0 0 0 32-32 32.213333 32.213333 0 0 0-32-32 453.76 453.76 0 0 1-133.76-6.826667l-8.32 62.72a1533.44 1533.44 0 0 1 159.786667-10.24l-8.533333-64a605.44 605.44 0 0 1-115.84 15.786667 123.093333 123.093333 0 0 0-50.56 13.44c-17.706667 10.24-24.533333 26.666667-37.333334 41.173333l50.133334 38.826667 13.226666-21.333334a32.213333 32.213333 0 0 0-27.52-48.213333 50.986667 50.986667 0 0 1-21.333333 0V362.666667a690.773333 690.773333 0 0 1 89.6-27.733334L469.333333 274.133333A503.893333 503.893333 0 0 1 376.533333 298.666667l17.066667 61.866666 112.213333-31.573333c33.493333-9.173333 28.373333-66.773333-8.533333-62.72a689.28 689.28 0 0 0-85.333333 14.72c-40.106667 9.813333-23.04 71.466667 17.066666 61.866667z" fill="#89AA66" p-id="2007"></path><path d="M584.32 311.893333a42.666667 42.666667 0 1 0 70.826667 19.2 32.426667 32.426667 0 0 0-53.546667-14.08A93.013333 93.013333 0 0 0 571.093333 384 36.266667 36.266667 0 0 0 618.666667 418.133333a58.666667 58.666667 0 0 0 32.213333-34.133333 51.626667 51.626667 0 0 0 0-46.506667 38.186667 38.186667 0 0 0-53.333333-10.88 68.693333 68.693333 0 0 0-27.946667 34.56 71.893333 71.893333 0 0 0-4.053333 18.986667 54.186667 54.186667 0 0 0 0 8.32c0 10.88-1.92 0 7.04-9.813333a32 32 0 0 0-6.613334 34.986666 33.066667 33.066667 0 0 0 29.226667 19.84 291.413333 291.413333 0 0 0 81.706667-5.12l-40.32-30.72a17.28 17.28 0 0 1 3.413333-11.52c8.533333-3.84 10.026667-5.12 4.693333-4.053333l36.053334 46.933333c5.973333-12.16 12.373333-24.32 19.2-36.266666l9.6-16 2.56-4.053334c-1.706667 1.92-1.92 2.133333 0 0l-6.613334 2.986667c-4.693333 2.133333 0-1.066667 2.346667 0h-1.493333 2.346666c4.906667 1.28 9.6 2.773333 14.506667 3.84a69.546667 69.546667 0 0 0 44.8-2.346667L721.066667 341.333333c1.28-3.413333 1.28-3.413333 0 0q2.773333-3.84 0-1.28h1.066666l-4.906666 2.346667c-23.253333 10.026667-18.56 43.946667 0 55.253333l42.666666 26.88 32.426667-55.253333c-14.72-7.04-29.226667-14.293333-43.946667-21.333333a62.72 62.72 0 0 0-60.373333-1.706667 32.213333 32.213333 0 0 0 7.68 58.453333l5.546667 2.133334 10.453333 5.333333c3.626667 1.92 6.826667 4.053333 10.24 6.186667l6.186667 4.48 5.76 5.12a101.973333 101.973333 0 0 1 8.32 8.32 97.92 97.92 0 0 1 7.68 8.746666c-3.84-4.906667 2.986667 4.693333 3.626666 5.546667A32 32 0 0 0 810.666667 417.493333 190.72 190.72 0 0 0 713.6 341.333333l7.68 58.453334c-2.346667 1.493333-4.693333 0-6.826667 1.066666s-1.92 0 1.493334 0h2.986666c-4.266667-1.28 0 0 2.346667 1.066667l7.893333 3.84 31.573334 15.146667a32 32 0 0 0 32.426666-55.253334l-42.666666-26.88v55.253334a66.133333 66.133333 0 0 0 33.28-38.186667 32.213333 32.213333 0 0 0-11.52-33.706667 32.853333 32.853333 0 0 0-35.413334-2.346666c2.986667-1.28 10.88-1.92 3.84-2.346667h2.56-3.413333c-5.12-1.493333-10.453333-2.986667-15.573333-4.053333a61.653333 61.653333 0 0 0-45.653334 4.48 99.413333 99.413333 0 0 0-30.933333 37.973333c-7.466667 12.8-14.293333 25.813333-21.333333 39.253333a32.853333 32.853333 0 0 0 2.56 35.626667 33.493333 33.493333 0 0 0 32.426666 13.013333 48.213333 48.213333 0 0 0 38.186667-46.506666 32.64 32.64 0 0 0-40.533333-30.933334l-8.746667 1.493334c-1.28 0-7.68 1.066667-3.626667 0l-17.493333 1.493333a320 320 0 0 1-34.986667 0l22.613334 54.613333a44.8 44.8 0 0 0 12.16-39.893333c0-2.986667-1.92 5.333333 0 0s-1.28 2.133333 0-1.28 0-1.493333 0 1.066667l1.706666-2.133334-2.133333 1.493334c3.2-1.92 2.986667-1.92-1.066667 0h-14.72l-14.08-8.106667a19.84 19.84 0 0 1-5.973333-17.28c-1.066667 3.626667-1.066667 3.84 0 0a30.08 30.08 0 0 1-2.773333 5.12 11.306667 11.306667 0 0 1 8.96-5.546667h17.066666-2.346666l14.293333 8.32-1.493333-2.986666 8.32 14.08a13.226667 13.226667 0 0 1 0 7.04l1.28-5.546667a55.04 55.04 0 0 1 1.706666-5.546667c-1.28 2.986667-1.493333 3.2 0 1.28s3.2-5.973333 5.12-8.533333c-3.84 5.333333 3.626667-3.2 4.48-4.053333l-53.333333-14.08a17.92 17.92 0 0 1 5.333333-17.706667 21.333333 21.333333 0 0 1 33.066667 4.693333 18.773333 18.773333 0 0 1 2.346667 8.96 14.293333 14.293333 0 0 1-3.413334 9.6c-3.626667 4.693333-4.053333 5.973333-1.28 3.626667a32.426667 32.426667 0 0 0 0-45.44 33.28 33.28 0 0 0-45.226666 0z" fill="#89AA66" p-id="2008"></path><path d="M733.866667 419.2c9.173333 15.573333 17.92 31.36 25.813333 47.36 3.84 7.893333 7.466667 15.786667 11.093333 23.893333 0 1.92 1.493333 3.626667 2.346667 5.546667-1.28-2.986667 0-1.066667 0 0l5.76 14.506667a32 32 0 0 0 61.653333-17.066667l-26.666666-77.013333a32 32 0 1 0-61.653334 17.066666 509.866667 509.866667 0 0 0 46.08 117.546667 32 32 0 0 0 58.453334-24.533333c-9.386667-26.88-18.773333-53.76-26.453334-81.066667-3.626667-13.013333-7.04-26.24-9.813333-39.466667q-2.133333-10.88-3.84-21.333333s-1.493333-10.24 0-3.84l-1.28-12.586667-32 32c-17.92 0-22.613333-18.133333-17.066667-6.4 1.493333 2.986667 2.773333 6.186667 4.053334 9.173334l6.4 15.36 15.146666 34.986666 29.44 68.693334a32 32 0 0 0 58.453334-24.746667 1018.666667 1018.666667 0 0 1-38.826667-131.413333L801.493333 405.333333a21.333333 21.333333 0 0 1-7.253333-4.693333c-2.773333-2.133333 0 0 0 1.706667a107.733333 107.733333 0 0 1 5.973333 10.88c4.48 8.96 8.96 18.133333 13.226667 27.306666l5.76 13.013334 2.56 5.973333v2.56c3.84 9.386667 7.68 18.773333 11.093333 28.16A32 32 0 1 0 896 473.6a1016.106667 1016.106667 0 0 1-33.706667-110.933333l-58.666666 24.746666a158.72 158.72 0 0 1 11.093333 21.333334c1.493333 3.413333 1.706667 3.626667 0 0l2.133333 5.333333c1.066667 3.413333 2.346667 6.613333 3.2 9.813333 4.693333 14.506667 8.32 29.226667 11.733334 44.16l61.653333-17.066666c-9.386667-30.72-19.84-61.013333-31.573333-90.88a32.213333 32.213333 0 0 0-58.453334-7.68 45.653333 45.653333 0 0 0-5.12 34.133333 32.213333 32.213333 0 0 0 39.466667 22.4 32.853333 32.853333 0 0 0 21.333333-39.466667l-1.28 15.36-58.453333-7.68c11.52 29.866667 21.333333 60.16 31.573333 90.88a32 32 0 0 0 61.653334-17.066666 304.426667 304.426667 0 0 0-34.773334-95.573334 31.786667 31.786667 0 0 0-38.826666-14.08 32.213333 32.213333 0 0 0-18.56 37.76A1062.186667 1062.186667 0 0 0 834.773333 490.666667l61.226667-17.066667c-8.746667-24.106667-18.773333-47.786667-29.653333-71.04-4.693333-10.24-9.6-21.333333-15.146667-30.293333a60.16 60.16 0 0 0-33.066667-28.373334 31.36 31.36 0 0 0-31.146666 8.32 32.426667 32.426667 0 0 0-7.893334 31.786667 979.626667 979.626667 0 0 0 38.826667 131.626667L876.373333 490.666667l-34.773333-80.64-16.853333-39.68a45.44 45.44 0 0 0-41.6-33.066667 32.213333 32.213333 0 0 0-32 32 756.906667 756.906667 0 0 0 44.16 175.573333L853.333333 519.68c-4.693333-8.533333-8.96-17.066667-13.013333-25.813333-1.92-4.053333-3.84-8.32-5.546667-12.373334 1.706667 4.053333 0 0 0-2.133333a72.96 72.96 0 0 1-2.773333-7.253333 454.826667 454.826667 0 0 1-17.493333-54.826667l-61.653334 17.066667L779.306667 512l61.653333-17.066667a710.186667 710.186667 0 0 0-51.84-106.666666 32 32 0 0 0-55.253333 32.213333z" fill="#89AA66" p-id="2009"></path><path d="M780.373333 567.893333a317.653333 317.653333 0 0 1 1.066667 93.44l62.933333 8.533334a407.68 407.68 0 0 1 17.28-112.213334H800a44.586667 44.586667 0 0 1-1.28 23.04c-2.346667 11.306667-4.693333 22.4-7.253333 33.493334-5.12 21.333333-10.88 44.373333-17.066667 66.133333l64 8.533333a429.013333 429.013333 0 0 1 35.626667-140.8h-56.32c-1.28-6.4-1.92-6.826667-1.706667-1.066666s0 5.12 0 7.68 0 10.24-1.706667 15.36c-1.066667 9.813333-2.773333 19.84-4.693333 29.653333-4.053333 21.333333-9.386667 42.666667-15.573333 64l64 8.533333a423.04 423.04 0 0 1 30.933333-137.6l-39.253333 21.333334h2.56l-14.293334-8.106667c-2.346667-2.133333-2.986667-10.666667-2.986666-4.053333 0 2.346667 0 4.693333 1.28 7.04a213.333333 213.333333 0 0 1 1.28 23.466666A203.52 203.52 0 0 1 832 618.666667l62.72 8.533333a464 464 0 0 1 4.906667-123.946667l-58.453334 7.68c17.706667 38.613333-2.133333 85.333333-20.053333 119.466667-10.88 21.333333-21.333333 42.666667-33.066667 64a195.626667 195.626667 0 0 1-34.986666 54.613333 32 32 0 0 0 45.226666 45.226667A246.826667 246.826667 0 0 0 842.88 725.333333c13.013333-26.026667 27.306667-51.2 39.893333-77.226666 26.026667-54.4 39.466667-113.493333 13.226667-170.666667a32.213333 32.213333 0 0 0-58.453333 7.68 520.96 520.96 0 0 0-7.253334 141.013333 32.213333 32.213333 0 0 0 27.733334 31.36 31.786667 31.786667 0 0 0 35.2-23.04 253.653333 253.653333 0 0 0 5.546666-76.16c-2.346667-26.24-5.546667-52.906667-34.133333-62.506666a32.64 32.64 0 0 0-39.253333 22.4 480.213333 480.213333 0 0 0-33.28 154.666666c-1.92 36.693333 52.693333 42.666667 62.72 8.533334a617.386667 617.386667 0 0 0 18.346666-80.426667c4.266667-26.666667 13.44-60.586667 0-85.333333a32.213333 32.213333 0 0 0-55.253333 0 520.106667 520.106667 0 0 0-44.373333 173.226666c-2.986667 36.693333 53.333333 42.666667 64 8.533334 7.04-25.173333 13.44-50.773333 19.2-76.373334a156.373333 156.373333 0 0 0 6.186666-80.213333 32.213333 32.213333 0 0 0-61.653333 0 471.893333 471.893333 0 0 0-19.626667 129.066667 32.213333 32.213333 0 0 0 64 8.533333 424.96 424.96 0 0 0-1.066666-128 32.213333 32.213333 0 0 0-39.466667-21.333333 32.853333 32.853333 0 0 0-22.4 39.253333zM535.893333 494.506667c-53.76-1.493333-91.52 56.746667-110.933333 100.053333a33.066667 33.066667 0 0 0 11.52 43.733333 32.426667 32.426667 0 0 0 43.733333-11.306666 450.986667 450.986667 0 0 0 34.986667-75.733334 31.146667 31.146667 0 0 0-8.106667-31.146666c-47.36-37.12-85.333333 31.146667-98.133333 68.906666a32.426667 32.426667 0 0 0 21.333333 39.466667 33.066667 33.066667 0 0 0 39.466667-22.4l14.08-33.92c13.866667-33.493333-42.666667-56.32-58.453333-24.746667-21.333333 39.893333-49.066667 81.493333-48.853334 128a199.893333 199.893333 0 0 0 51.2 118.613334 32.213333 32.213333 0 0 0 54.613334-22.613334l-10.88-149.333333a32.213333 32.213333 0 0 0-62.933334-8.533333 291.2 291.2 0 0 0-13.226666 113.28c2.773333 31.573333 7.04 77.653333 39.893333 93.226666a32.426667 32.426667 0 0 0 46.933333-36.266666 267.306667 267.306667 0 0 0-16.426666-60.16 150.4 150.4 0 0 0-31.36-55.466667 33.706667 33.706667 0 0 0-38.826667-5.12c-33.066667 14.293333-24.96 72.533333-17.066667 100.053333a163.84 163.84 0 0 0 53.76 87.466667 31.146667 31.146667 0 0 0 32.426667 0c24.106667-16.213333 19.2-42.666667 15.573333-67.626667a280.533333 280.533333 0 0 0-19.2-69.546666c-7.253333-17.066667-28.373333-32.853333-47.146666-19.2-33.493333 24.533333-21.333333 68.266667-7.466667 101.546666a159.786667 159.786667 0 0 0 65.92 81.706667c30.72 17.706667 78.72 19.626667 87.68-23.68 7.253333-34.986667-26.026667-71.253333-50.56-91.733333a88.32 88.32 0 0 0-44.373333-24.533334 37.12 37.12 0 0 0-40.746667 39.893334c1.92 31.786667 34.56 66.56 57.813333 85.333333s70.186667 50.133333 98.773334 21.333333c34.346667-35.413333-25.173333-75.306667-52.48-89.386666a80.64 80.64 0 0 0-57.173334-13.44 38.613333 38.613333 0 0 0-21.333333 56.746666 146.133333 146.133333 0 0 0 89.173333 71.253334c33.066667 10.026667 50.133333-30.506667 31.146667-53.546667a154.88 154.88 0 0 0-83.2-51.626667 32.426667 32.426667 0 0 0-36.266667 46.933334 116.053333 116.053333 0 0 0 55.893334 56.106666 98.773333 98.773333 0 0 0 80.213333 5.973334 40.32 40.32 0 0 0 2.133333-71.893334 252.8 252.8 0 0 0-88.746666-27.306666 32.213333 32.213333 0 0 0-39.253334 39.253333c10.24 39.04 73.386667 48.64 106.666667 48s85.333333-12.586667 86.4-57.6a32 32 0 0 0-64 0c0-2.133333 6.826667-10.666667 5.76-10.88s-10.026667 2.773333-12.8 3.2a132.906667 132.906667 0 0 1-24.32 1.28 88.533333 88.533333 0 0 1-43.946667-11.093333l8.32 14.08-1.066666-3.84-37.973334 38.4a292.906667 292.906667 0 0 1 42.666667 9.386666 96 96 0 0 1 29.866667 11.52l-8.32-14.08v3.413334-17.066667l-1.28 3.84 8.106666-14.293333c5.12-4.48 8.106667-1.706667 1.493334-3.413334h-8.746667a57.173333 57.173333 0 0 1-17.706667-6.613333 60.8 60.8 0 0 1-24.106666-28.586667l-36.053334 46.933334a98.56 98.56 0 0 1 55.04 35.2l31.146667-53.546667a73.813333 73.813333 0 0 1-49.28-39.466667L504.533333 832l1.28-2.56-11.52 11.52c-12.586667 0-15.36 1.28-8.96 3.2l6.4 2.56a163.84 163.84 0 0 1 15.786667 8.746667 86.613333 86.613333 0 0 1 23.893333 17.92l-4.266666-16v3.626666l9.386666-22.613333-2.133333 1.706667 14.08-8.106667c5.12 0 0 0-3.2-2.56l-10.026667-6.186667a119.68 119.68 0 0 1-19.626666-16.426666 161.28 161.28 0 0 1-14.933334-17.066667c-2.346667-3.2-4.266667-6.4-6.186666-9.6s-6.613333-14.933333-5.76-6.186667l-4.266667 16.213334 1.493333-3.2-19.2 14.72 3.413334-1.493334h-16.853334c8.106667 1.493333 19.626667 14.293333 26.026667 21.333334a106.666667 106.666667 0 0 1 10.88 13.013333c2.133333 2.986667 4.266667 6.186667 6.186667 9.386667 3.626667 8.533333 5.12 5.333333 4.48-9.386667l14.08-8.106667c-10.453333 4.053333-31.786667-21.333333-37.12-30.72a133.973333 133.973333 0 0 1-13.866667-30.293333 177.066667 177.066667 0 0 1-4.693333-17.493333c-1.28-5.546667 0-14.08-3.84-6.826667l-11.52 11.52 3.2-2.346667-46.933334-18.986666a281.6 281.6 0 0 1 14.506667 42.666666 118.186667 118.186667 0 0 1 6.186667 38.826667l14.72-18.986667-2.56 1.493334h32.426666a80 80 0 0 1-10.88-17.92 123.52 123.52 0 0 1-11.306666-23.253334 100.053333 100.053333 0 0 1-6.613334-45.866666l-11.52 11.52 3.626667-1.493334-38.826667-4.906666a106.666667 106.666667 0 0 1 19.413334 38.826666 269.866667 269.866667 0 0 1 11.946666 48.64l48-36.266666c-2.773333-1.493333-4.053333-13.226667-5.12-17.92a202.666667 202.666667 0 0 1-4.053333-39.253334 234.666667 234.666667 0 0 1 12.16-77.013333l-62.933333-8.533333 10.88 149.333333 54.613333-22.613333a121.813333 121.813333 0 0 1-32.213333-79.146667c2.773333-31.573333 25.386667-62.506667 39.893333-89.813333L423.04 554.666667l-14.08 33.92 61.653333 17.066666c4.266667-11.52 13.226667-32.64 23.893334-37.546666l-16.213334 4.48h3.413334l-22.613334-9.386667 2.773334 1.92-8.32-31.786667a371.84 371.84 0 0 1-28.586667 60.373334l55.253333 32.426666a220.586667 220.586667 0 0 1 25.813334-44.586666c6.826667-8.96 17.493333-24.32 29.866666-23.893334 41.173333 1.066667 41.173333-62.933333 0-64z" fill="#89AA66" p-id="2010"></path><path d="M453.76 702.506667a420.053333 420.053333 0 0 0 27.733333 81.28 194.133333 194.133333 0 0 0 45.44 67.413333c15.786667 13.866667 49.92 11.733333 53.546667-14.08 4.266667-32.213333-17.066667-64-29.866667-94.08L512 656l-50.133333 38.826667a573.013333 573.013333 0 0 1 44.586666 78.08A826.88 826.88 0 0 0 562.346667 853.333333 32 32 0 1 0 618.666667 821.12a717.866667 717.866667 0 0 1-82.346667-198.4l-58.453333 24.746667A1883.306667 1883.306667 0 0 0 597.333333 853.333333a32.853333 32.853333 0 0 0 43.733334 11.52 32.426667 32.426667 0 0 0 11.52-42.666666c-46.08-68.48-88.106667-140.16-104.746667-221.866667L490.666667 624.213333q53.12 111.573333 116.053333 218.24L661.333333 810.666667a960 960 0 0 1-93.866666-205.866667l-58.453334 24.746667 118.186667 199.04 55.466667-32.64A651.093333 651.093333 0 0 1 595.84 576l-47.146667 36.053333c-4.906667-2.986667-2.773333-6.613333 0 1.493334a50.986667 50.986667 0 0 0 4.693334 12.373333c3.413333 8.96 6.826667 17.92 10.453333 26.88 7.466667 18.986667 15.146667 37.76 23.253333 56.32a1116.586667 1116.586667 0 0 0 51.626667 103.68 32 32 0 0 0 39.893333 13.013333 31.786667 31.786667 0 0 0 18.56-37.76 938.666667 938.666667 0 0 1-70.826666-216.96l-59.52 24.106667a1450.666667 1450.666667 0 0 0 101.546666 202.666667 32.426667 32.426667 0 0 0 43.733334 11.52 32.853333 32.853333 0 0 0 11.52-42.666667 923.52 923.52 0 0 1-71.68-207.573333l-58.453334 24.746666 94.72 197.333334c15.36 32.213333 72.533333 8.96 58.453334-24.533334a638.08 638.08 0 0 1-56.96-196.906666l-59.52 16a529.066667 529.066667 0 0 1 40.533333 87.893333l40.106667 94.506667a32 32 0 0 0 58.453333-24.533334 935.466667 935.466667 0 0 1-48.853333-170.666666l-61.866667 17.066666q26.453333 68.906667 47.573333 139.52a32 32 0 0 0 61.653334-17.066666c-11.306667-47.146667-34.346667-93.013333-31.146667-142.72l-59.52 16.213333a529.28 529.28 0 0 1 41.6 130.56l61.866667-17.066667A524.8 524.8 0 0 1 748.8 554.666667l-64 8.533333c14.72 35.84 27.733333 72.533333 39.04 109.653333l61.653333-17.066666a704 704 0 0 1-26.026666-93.44l-61.653334 17.066666c4.693333 15.36 9.386667 30.72 13.866667 46.08 2.133333 6.826667 4.053333 13.653333 6.186667 21.333334l3.84 12.8c0 1.066667 2.133333 8.96 2.346666 6.613333l4.266667-16v1.706667l36.053333-14.72h-1.28a32 32 0 0 0-39.253333 22.4 32.64 32.64 0 0 0 21.333333 39.466666h1.066667a32.426667 32.426667 0 0 0 36.266667-14.72c12.8-18.133333 0-42.666667-5.333334-62.08s-11.733333-39.253333-17.706666-58.88a32 32 0 0 0-61.653334 17.066667A704 704 0 0 0 725.333333 672.64a32.853333 32.853333 0 0 0 39.253334 21.333333 32.426667 32.426667 0 0 0 21.333333-39.466666q-16.853333-55.68-39.04-109.653334a32.213333 32.213333 0 0 0-34.986667-22.826666A31.36 31.36 0 0 0 684.8 554.666667a590.08 590.08 0 0 0 33.92 150.826666 32.213333 32.213333 0 0 0 61.866667-17.066666 600.96 600.96 0 0 0-48.213334-145.92 32.213333 32.213333 0 0 0-36.266666-14.506667 33.28 33.28 0 0 0-23.466667 30.72c-3.626667 55.893333 21.333333 106.666667 33.493333 159.786667l61.653334-17.066667q-21.333333-70.4-47.36-139.52a32.213333 32.213333 0 0 0-61.866667 17.066667 946.133333 946.133333 0 0 0 49.066667 170.666666L766.08 725.333333 725.333333 630.4a513.493333 513.493333 0 0 0-40.533333-87.893333 33.28 33.28 0 0 0-36.266667-14.72 32.64 32.64 0 0 0-23.466666 30.933333 680.533333 680.533333 0 0 0 59.306666 213.333333l58.453334-24.533333-94.08-197.12a32 32 0 0 0-40.106667-13.013333 32.64 32.64 0 0 0-18.56 38.613333 987.093333 987.093333 0 0 0 78.293333 221.866667l55.253334-32.213334a1461.76 1461.76 0 0 1-101.546667-202.666666 31.786667 31.786667 0 0 0-39.893333-13.013334 32.64 32.64 0 0 0-18.56 37.76 932.48 932.48 0 0 0 70.826666 216.96l58.453334-24.746666a1051.52 1051.52 0 0 1-55.68-113.28c-7.893333-18.346667-15.146667-37.12-22.4-55.68a93.653333 93.653333 0 0 0-33.706667-54.613334A32.426667 32.426667 0 0 0 533.333333 592.426667a704 704 0 0 0 93.44 235.733333A32 32 0 0 0 682.666667 795.946667L564.48 597.333333c-18.133333-30.506667-69.76-10.88-58.453333 24.533334a1026.56 1026.56 0 0 0 100.266666 221.013333A32 32 0 0 0 661.333333 810.666667q-62.72-106.666667-116.053333-218.453334a31.786667 31.786667 0 0 0-39.893333-13.013333 32.426667 32.426667 0 0 0-18.56 37.76C504.746667 704 549.333333 781.013333 597.333333 853.333333l55.253334-32.213333a1886.08 1886.08 0 0 1-121.386667-206.293333 31.786667 31.786667 0 0 0-39.893333-13.013334A32.426667 32.426667 0 0 0 473.6 640a777.6 777.6 0 0 0 88.746667 213.333333L618.666667 821.12a813.226667 813.226667 0 0 1-57.6-85.333333 571.946667 571.946667 0 0 0-52.053334-86.613334 32 32 0 0 0-42.666666-2.56 32.853333 32.853333 0 0 0-8.32 41.386667l32.64 74.666667 15.573333 35.84a183.68 183.68 0 0 1 13.013333 33.493333v-17.066667 4.266667l53.546667-14.08c-32.64-28.373333-47.573333-79.786667-56.533333-120.533333a32.426667 32.426667 0 0 0-39.466667-21.333334 32.64 32.64 0 0 0-22.4 39.253334z" fill="#89AA66" p-id="2011"></path><path d="M503.893333 589.013333a273.92 273.92 0 0 1 81.493334-58.666666 32 32 0 1 0-32.426667-55.253334c-9.386667 4.266667-18.986667 8.32-28.8 11.946667-4.906667 1.92-10.026667 3.84-15.36 5.546667l-8.746667 2.773333c-5.76 1.28-3.84 1.493333 5.333334 0l14.08 8.32-2.133334-1.706667L512 552.533333c11.946667-6.826667 24.106667-13.013333 36.693333-18.986666l-32.213333-55.253334-13.866667 8.106667a32 32 0 0 0 24.533334 58.453333 121.813333 121.813333 0 0 1 21.333333-5.12h13.013333c8.32 0 0 1.066667-4.48-3.413333l-8.106666-14.08v-2.346667l4.48-16.213333a142.08 142.08 0 0 1-49.493334 47.146667l46.933334 19.2s-3.84 17.493333-4.053334 17.28 7.68-5.546667 9.173334-6.4l16.853333-11.093334a355.413333 355.413333 0 0 1 35.84-18.56l-43.733333-42.666666a39.466667 39.466667 0 0 1-7.466667 6.186666c-5.546667 3.626667-7.893333 1.493333-13.013333 4.906667 10.026667-6.613333 12.8 30.08 19.84 27.306667 1.706667 0 3.413333-3.413333 4.906666-4.693334-3.2 2.56 4.906667-2.773333 4.906667-2.56s7.466667-3.626667 5.333333-2.773333a50.56 50.56 0 0 1 26.24-3.413333c5.333333 0-5.973333-1.92 3.413334 0l8.106666 2.346666c2.773333 0 0 0 3.413334 1.28l8.746666 5.546667V486.4a25.6 25.6 0 0 1-25.386666-4.053333l11.52 11.52-1.28-2.133334 4.48 16.213334v-2.346667l-9.386667 22.613333c-9.173333 4.053333-10.453333 5.333333-4.266667 3.626667h-1.28a92.586667 92.586667 0 0 1 10.88 0h5.76a110.506667 110.506667 0 0 1 11.946667 3.626667 62.08 62.08 0 0 1 24.106667 19.413333l9.813333-42.88-2.986667 1.493333 16.213334-4.48a11.733333 11.733333 0 0 1 7.466666 2.986667c-3.2-2.773333-3.413333-3.413333-1.066666-1.493333l4.48 16.213333v-2.986667l-4.266667 16.213334 1.28-2.346667-19.2 14.72c-1.92 0-8.533333-1.493333-1.066667 0l6.613334 1.92c8.32 2.986667-2.346667-1.706667 5.12 2.56a54.613333 54.613333 0 0 0 5.546666 3.2 42.666667 42.666667 0 0 1 14.72 19.626667l39.466667-39.466667c-6.613333 0-6.826667 0-10.666667-3.84S725.333333 533.333333 725.333333 530.56l-39.253333 39.253333c-4.693333-1.92 0 1.493333 0 0s1.28 1.493333 2.133333 4.906667a32 32 0 0 0 61.653334-17.066667 75.306667 75.306667 0 0 0-46.933334-50.346666c-23.893333-10.026667-44.586667 18.346667-39.466666 39.466666a73.6 73.6 0 0 0 58.026666 54.613334 33.706667 33.706667 0 0 0 31.146667-8.106667 32 32 0 0 0 8.32-31.146667 109.44 109.44 0 0 0-87.893333-73.813333 39.253333 39.253333 0 0 0-38.4 12.8 36.906667 36.906667 0 0 0-2.773334 42.666667 50.986667 50.986667 0 0 0 66.986667 23.253333 32.213333 32.213333 0 0 0 11.52-43.946667 122.026667 122.026667 0 0 0-128-52.693333 38.613333 38.613333 0 0 0-29.866667 34.773333A39.04 39.04 0 0 0 576 541.866667a93.013333 93.013333 0 0 0 82.986667 0 32.213333 32.213333 0 0 0 0-55.253334 114.56 114.56 0 0 0-143.786667 14.933334 53.333333 53.333333 0 0 0-14.506667 49.066666 44.373333 44.373333 0 0 0 42.666667 30.933334 93.226667 93.226667 0 0 0 75.093333-42.666667 32.426667 32.426667 0 0 0-5.12-38.826667 33.493333 33.493333 0 0 0-38.826666-4.906666 320 320 0 0 0-54.4 30.933333c-19.2 13.44-42.666667 33.066667-32.64 59.946667a32.426667 32.426667 0 0 0 46.933333 19.2 270.506667 270.506667 0 0 0 42.666667-34.346667 88.533333 88.533333 0 0 0 33.28-51.84c2.56-54.186667-68.266667-46.933333-101.973334-36.053333L533.333333 541.653333l13.866667-8.106666a32.426667 32.426667 0 0 0 11.946667-42.88 32.853333 32.853333 0 0 0-43.733334-11.52c-12.586667 5.973333-24.746667 12.16-36.906666 18.986666a32.213333 32.213333 0 0 0-6.4 50.346667 55.253333 55.253333 0 0 0 58.24 5.12 560.853333 560.853333 0 0 0 55.04-22.4l-32.426667-55.253333a324.693333 324.693333 0 0 0-94.293333 68.693333c-28.586667 29.653333 16.64 75.093333 45.226666 45.226667zM568.96 832a136.746667 136.746667 0 0 0 85.333333 33.92l-26.666666-48.853333-1.706667 2.986666 11.52-11.52a182.826667 182.826667 0 0 1-32.426667 10.24l-38.826666 11.733334a32.426667 32.426667 0 0 0-19.2 46.933333c11.093333 21.333333 33.92 22.613333 54.826666 20.266667a580.053333 580.053333 0 0 0 64-10.026667l-39.466666-39.253333c8.32-7.68 10.24-10.666667 5.76-9.173334l-10.666667 4.266667-16 6.4-37.546667 14.72a32.213333 32.213333 0 0 0 8.533334 62.933333 188.373333 188.373333 0 0 0 74.666666-9.813333 32 32 0 0 0-8.533333-62.72c-21.333333 0-40.746667-1.92-61.226667-4.266667v64c56.106667 0 113.066667-4.906667 156.16-44.8a32.64 32.64 0 0 0 4.053334-37.973333 33.066667 33.066667 0 0 0-36.053334-14.72 180.266667 180.266667 0 0 0-70.4 29.44 32.853333 32.853333 0 0 0-13.226666 40.106667 32.213333 32.213333 0 0 0 37.76 18.56 305.92 305.92 0 0 0 106.666666-58.88c25.386667-21.333333-1.92-61.226667-31.146666-53.333334a177.066667 177.066667 0 0 0-68.48 32 32.213333 32.213333 0 0 0 31.146666 53.333334 174.08 174.08 0 0 0 90.666667-74.453334 32.426667 32.426667 0 0 0-36.266667-46.933333 209.28 209.28 0 0 0-109.866666 57.173333 32.213333 32.213333 0 0 0 14.08 53.546667c52.053333 7.68 105.6-37.76 137.173333-74.88a32.426667 32.426667 0 0 0 0-45.226667c-31.786667-26.453333-61.226667 1.706667-88.106667 21.333334l42.666667 43.733333 66.773333-100.266667-55.04-34.133333a503.893333 503.893333 0 0 0-51.84 110.933333 32.426667 32.426667 0 0 0 47.146667 36.266667 137.813333 137.813333 0 0 0 34.133333-28.586667l-50.133333-38.826666a185.386667 185.386667 0 0 1-69.76 70.826666 32.213333 32.213333 0 0 0 24.533333 58.453334 341.333333 341.333333 0 0 0 92.16-44.373334l-32.213333-55.466666a661.333333 661.333333 0 0 0-58.666667 47.36c-26.453333 24.106667 8.96 72.106667 38.613334 50.346666l46.506666-33.92-43.733333-42.666666v1.28l27.733333-16h-1.706666l22.613333 9.386666-1.066667-1.28 7.466667 29.866667v-2.773333l-8.32 14.293333a338.133333 338.133333 0 0 0 43.733333-50.346667 31.786667 31.786667 0 0 0-8.32-41.386666 32.64 32.64 0 0 0-42.666666 2.56 61.013333 61.013333 0 0 0-16.213334 21.333333 32 32 0 0 0 55.253334 32.426667 240 240 0 0 0 34.346666-66.986667c11.52-33.92-42.666667-57.813333-58.453333-24.746667a113.066667 113.066667 0 0 0-10.453333 38.186667 32.213333 32.213333 0 0 0 59.52 16.213333 727.893333 727.893333 0 0 0 51.2-141.44l-64-8.533333a42.666667 42.666667 0 0 1-8.533334 24.533333 32.213333 32.213333 0 0 0 13.226667 43.946667 32.64 32.64 0 0 0 43.733333-11.52 103.68 103.68 0 0 0 17.28-56.746667 32.213333 32.213333 0 0 0-62.933333-8.533333 628.266667 628.266667 0 0 1-44.586667 126.08l59.733334 16.213333a25.6 25.6 0 0 1 1.706666-5.76L789.333333 725.333333a189.013333 189.013333 0 0 1-27.946666 51.626667l55.253333 32.426667a16 16 0 0 1 6.4-8.533334l-50.346667-38.826666a294.4 294.4 0 0 1-33.706666 37.333333 34.773333 34.773333 0 0 0 24.746666 58.666667 31.786667 31.786667 0 0 0 27.733334-15.786667v-1.28c15.786667-25.813333-17.066667-64-43.733334-42.666667l-45.866666 31.786667 38.826666 50.133333a475.093333 475.093333 0 0 1 45.653334-37.12 33.28 33.28 0 0 0 11.52-43.946666 32.426667 32.426667 0 0 0-42.666667-11.52 283.946667 283.946667 0 0 1-76.8 38.186666l24.533333 58.453334a249.173333 249.173333 0 0 0 92.8-93.653334c17.066667-30.72-25.813333-67.413333-50.346666-38.826666a80.64 80.64 0 0 1-21.333334 18.346666l47.146667 36.053334a424.746667 424.746667 0 0 1 45.226667-95.36c21.333333-35.2-32.426667-66.346667-55.253334-32.426667l-66.773333 100.48c-17.28 26.026667 17.493333 62.08 42.666667 43.733333l21.333333-15.146666 8.746667-5.973334c6.4-4.906667 0-2.56 6.186666-3.626666h-17.066666 2.986666l-14.08-8.533334 2.346667 1.92V746.666667a209.92 209.92 0 0 1-37.333333 35.413333 216.533333 216.533333 0 0 1-21.333334 14.08 90.666667 90.666667 0 0 1-12.8 6.613333c-2.773333 1.28-9.386667 1.28-2.56 2.133334l14.08 53.546666a152.746667 152.746667 0 0 1 80.426667-40.533333l-36.053333-46.933333a104.32 104.32 0 0 1-52.48 45.013333l31.146666 53.546667a109.44 109.44 0 0 1 40.746667-16.213334l-31.146667-53.546666a225.92 225.92 0 0 1-77.653333 42.666666l24.746667 58.453334a136.533333 136.533333 0 0 1 55.04-23.04l-31.146667-53.333334c-29.866667 27.306667-72.533333 26.24-110.72 26.24a32.426667 32.426667 0 0 0-32 32 32.853333 32.853333 0 0 0 32 32c21.333333 2.346667 40.746667 3.84 61.226667 4.266667l-8.32-62.933333a140.16 140.16 0 0 1-57.813334 7.466666l8.533334 62.72 58.88-23.04c18.346667-7.253333 39.68-15.146667 44.16-37.76a32.426667 32.426667 0 0 0-39.253334-39.466666c-12.16 2.56-24.106667 4.906667-36.266666 6.613333l-12.373334 1.493333h-10.666666c-5.76 0-4.48 0 3.626666 1.493334l11.52 11.306666-1.493333-2.56-18.986667 46.933334 51.626667-15.573334c17.92-5.333333 38.4-8.96 48-27.306666a32.426667 32.426667 0 0 0-27.733333-48 65.493333 65.493333 0 0 1-40.96-15.146667 32.64 32.64 0 0 0-45.226667 0 32.213333 32.213333 0 0 0 0 45.226667zM288.213333 267.946667l4.693334 1.493333c-3.626667-1.706667-4.053333-1.706667 0 0s2.773333 1.706667 0 0l3.84 3.413333c2.133333 2.56 2.133333 2.346667 0 0l2.56 4.266667a45.226667 45.226667 0 0 1 2.346666 4.48C298.666667 277.333333 298.666667 277.333333 298.666667 279.68a33.066667 33.066667 0 0 1 1.28 4.906667v-1.066667c0 3.626667-2.133333 8.32 0 1.28a33.066667 33.066667 0 0 1-1.493334 4.906667 8.746667 8.746667 0 0 1 2.133334-4.48 21.333333 21.333333 0 0 1 26.453333 0c1.92 2.56 1.92 2.133333 0-1.066667s-5.973333-11.52-3.84-6.613333a79.786667 79.786667 0 0 1-3.626667-12.16c-2.346667-8.533333 0 4.906667 0-4.053334a123.946667 123.946667 0 0 1 0-12.586666c0 6.826667 1.066667-4.693333 1.493334-6.186667s1.28-3.626667 0 0c0-1.706667 1.706667-3.413333 2.773333-5.12s2.133333-3.2 0 0q4.053333-3.84 0 0a22.613333 22.613333 0 0 1 4.266667-2.56c-3.413333 1.28-4.053333 1.706667-1.706667 1.066667s1.493333 0-2.346667 0h4.906667-1.28c-3.84-1.92-4.266667-2.133333-1.066667 0-3.2-2.773333-3.626667-2.773333 0 0a8.746667 8.746667 0 0 1-2.986666-4.266667c0-3.84 0-3.84 0 0 0-3.626667 0-3.626667 0 0s-3.626667 2.986667-3.626667 4.053333c1.28-2.986667 0-2.56 0 0l-4.906667 7.893334c-2.133333 3.2-2.346667 3.413333 0 0a26.88 26.88 0 0 1-4.266666 4.266666c0-9.386667 19.84 0 21.333333 0-2.56-2.56-2.56-2.56 0 0-1.706667-3.2-1.706667-3.2 0 0 0-3.84 0-3.626667 0 0a44.586667 44.586667 0 0 1 0-5.333333c0-6.613333-1.92 3.626667 0-2.346667a46.293333 46.293333 0 0 1 1.493333-5.12c-1.493333 3.413333-1.493333 3.626667 0 0s7.253333-9.813333 2.56-4.693333c1.066667-1.28 9.386667-8.106667 3.626667-4.053333 1.493333-1.066667 11.093333-5.546667 4.266667-3.2l5.12-1.493334c-4.053333 0-4.48 0 0 0l-16.213334-4.48-2.773333-2.133333-10.24-10.88c0-1.706667 0-16.64 2.773333-17.28-1.28 0-4.48 4.48-5.76 5.333333s3.413333-1.92 0 0l-5.333333 3.413334-2.133333 1.493333c-2.773333 1.706667-3.626667 0 0 0a26.026667 26.026667 0 0 1 14.08 8.32c-3.626667-4.053333 0 1.92 0-1.066667s1.28 4.693333 0 0 0 4.48 0 0c0 2.133333 0 1.706667 1.066666-1.28l-1.493333 2.133334 2.133333-1.92-2.133333 1.706666 2.56-1.493333c-2.986667 0-2.773333 0 0 0 7.04-2.346667-2.56 0 1.28 0h1.28l-18.986667-46.933333s-5.12 8.106667 0 2.986666a52.693333 52.693333 0 0 1-5.973333 5.973334c4.266667-3.626667 0 0-2.773333 1.066666l2.56-1.066666c-6.186667 1.706667-3.413333 1.92 7.68 1.066666l14.293333 8.106667-5.12-0.213333 8.32 14.08a14.933333 14.933333 0 0 1 0 11.733333c0 1.493333 0 1.493333 0 0s2.133333-4.053333 3.413333-5.973333c-2.346667 3.84 0 0 1.28-1.28l5.12-5.12 4.266667-3.626667c-4.266667 3.626667 0 0 1.706667-1.28l13.44-8.746667L320 123.733333a28.586667 28.586667 0 0 1-4.48 4.266667c2.346667-1.92 2.133333-1.92-1.066667 0a42.666667 42.666667 0 0 1-5.333333 2.986667c2.773333-1.28 2.56-1.28 0 0L346.453333 170.666667c1.493333-5.333333-1.493333 0 0-1.706667s4.48-5.973333 0-1.706667a40.32 40.32 0 0 1 4.266667-4.266666c-4.48 3.84 1.92 0 2.986667-1.493334L316.16 110.933333a87.68 87.68 0 0 1-8.106667 9.6l-4.48 4.266667s-6.613333 5.546667-4.053333 3.626667l-2.986667 2.133333-5.333333 3.2a139.52 139.52 0 0 1-12.586667 6.4l42.666667 42.666667 6.826667-11.093334-54.186667-31.146666-6.4 11.52a32 32 0 1 0 55.253333 32.213333 99.413333 99.413333 0 0 1 6.4-10.026667c-3.626667 4.906667 1.493333-1.92 2.346667-2.773333a80.64 80.64 0 0 1 9.813333-8.32c-4.906667 3.84 1.92-1.066667 2.986667-1.706667l5.12-2.56c-3.2 1.28-2.986667 1.28 0 0s8.533333-1.493333 2.773333 0h5.76c-3.626667 0-3.626667 0 0 0a9.813333 9.813333 0 0 1-4.48-2.773333 5.12 5.12 0 0 1-1.92-3.2v1.493333a53.333333 53.333333 0 0 1 1.493334 5.546667l1.28 6.826667V203.093333c0-4.266667-1.066667 5.973333-1.28 7.04a202.88 202.88 0 0 1-7.04 24.533334h61.653333c0-2.346667-1.066667-4.48-1.493333-6.826667v-1.706667a92.373333 92.373333 0 0 1 0-15.36V209.066667c0-2.133333 0-4.48 1.493333-6.613334l1.92-6.613333s2.773333-7.04 1.066667-3.626667l-43.733334 11.52-8.96-10.666666c0 3.2 0 3.626667 0 0v56.106666a361.386667 361.386667 0 0 1-9.386666 64h61.653333a149.333333 149.333333 0 0 1-4.053333-24.533333v-26.026667c0-18.773333 2.346667-37.546667 4.053333-56.106666h-64c-1.706667 21.333333-2.773333 44.16-3.413333 66.133333a163.626667 163.626667 0 0 0 0 35.413333 37.973333 37.973333 0 0 0 28.16 30.293334 33.28 33.28 0 0 0 39.466666-22.4 289.28 289.28 0 0 1 14.293334-32.853334c2.56-5.546667 5.546667-10.88 8.533333-16.426666s3.626667-6.186667 5.333333-9.6l1.92-3.2a17.28 17.28 0 0 1-8.32 6.186666h-16.853333 2.56l-14.293333-8.32c-3.413333-8.32-4.906667-10.24-4.053334-6.186666a19.413333 19.413333 0 0 1 0 4.906666c0 3.413333 0 7.04 1.493334 10.453334l2.773333 21.333333 61.866667-17.066667a283.733333 283.733333 0 0 1-3.84-30.506666 146.986667 146.986667 0 0 1 0-16.853334v-7.466666-6.186667L405.333333 213.333333c1.493333 3.626667 1.92 4.053333 0 1.706667 0 2.133333 1.706667 4.266667 2.346667 6.4a134.826667 134.826667 0 0 1 3.84 13.226667c0 2.133333 1.066667 4.48 1.493333 6.613333s0 4.48 0 1.706667v13.653333L469.333333 234.666667a106.666667 106.666667 0 0 1-12.586666-11.52 32.213333 32.213333 0 0 0-45.226667 0 32.64 32.64 0 0 0 0 45.226666 80.64 80.64 0 0 0 12.586667 11.52 32.64 32.64 0 0 0 34.986666 6.613334A31.786667 31.786667 0 0 0 477.866667 256a176.64 176.64 0 0 0-18.133334-75.733333 32.213333 32.213333 0 0 0-58.453333 7.68 296.96 296.96 0 0 0 4.053333 95.573333 32.213333 32.213333 0 0 0 39.466667 22.4 33.28 33.28 0 0 0 22.4-39.466667 145.28 145.28 0 0 0-9.173333-48 39.253333 39.253333 0 0 0-62.08-8.533333 142.933333 142.933333 0 0 0-25.6 41.386667c-7.893333 15.786667-14.72 32-21.333334 48.213333l39.466667-21.333333 4.053333 1.706666 11.52 11.52c2.773333 4.48 1.92 11.306667 2.133334 1.92v-36.053333c0-16.213333 1.706667-32.64 2.986666-49.066667a32.213333 32.213333 0 0 0-32-32 32.853333 32.853333 0 0 0-32 32 365.226667 365.226667 0 0 0 3.2 123.733334 32.213333 32.213333 0 0 0 61.653334 0 507.946667 507.946667 0 0 0 12.373333-91.306667v-42.666667A56.746667 56.746667 0 0 0 399.36 149.333333a31.786667 31.786667 0 0 0-42.666667 11.52 139.733333 139.733333 0 0 0-9.6 91.52 32.426667 32.426667 0 0 0 30.72 23.68 34.133333 34.133333 0 0 0 30.933334-23.68 201.173333 201.173333 0 0 0 11.52-73.813333c0-25.6-4.693333-55.893333-26.453334-72.746667a73.173333 73.173333 0 0 0-76.586666-1.706666 118.186667 118.186667 0 0 0-48.64 48.426666l55.253333 32.213334 6.4-11.52a32 32 0 1 0-55.253333-32.213334l-6.826667 11.093334a32.213333 32.213333 0 0 0 5.12 38.826666 33.493333 33.493333 0 0 0 38.613333 4.906667A138.24 138.24 0 0 0 362.666667 156.373333a32.64 32.64 0 0 0 2.346666-42.666666A32 32 0 0 0 322.773333 106.666667a80.853333 80.853333 0 0 0-38.186666 46.933333A32.213333 32.213333 0 0 0 324.053333 192a96.426667 96.426667 0 0 0 40.106667-23.893333 32 32 0 0 0-38.613333-50.133334c-26.666667 16.853333-64 44.16-59.52 80.64 4.053333 29.44 34.133333 36.266667 57.813333 26.24A78.933333 78.933333 0 0 0 362.666667 190.08a32.64 32.64 0 0 0-19.2-47.146667 77.013333 77.013333 0 0 0-55.68 9.386667 67.626667 67.626667 0 0 0-30.08 52.48 56.32 56.32 0 0 0 27.946666 52.48 61.226667 61.226667 0 0 0 62.506667-8.96A65.066667 65.066667 0 0 0 384 197.76a40.106667 40.106667 0 0 0-56.32-33.92 88.746667 88.746667 0 0 0-60.373333 79.786667 68.053333 68.053333 0 0 0 19.413333 51.2 49.493333 49.493333 0 0 0 66.986667 1.493333c30.08-24.533333 44.8-73.6 18.986666-106.666667a64 64 0 0 0-95.786666 2.986667 104.32 104.32 0 0 0-14.08 106.026667c9.6 23.466667 26.666667 50.346667 55.893333 46.293333a55.893333 55.893333 0 0 0 45.226667-53.12 81.706667 81.706667 0 0 0-58.88-85.333333 32 32 0 0 0-16.853334 61.866666z" fill="#89AA66" p-id="2012"></path><path d="M417.28 247.253333a181.333333 181.333333 0 0 1 25.386667 64 32.213333 32.213333 0 0 0 39.253333 22.4 32.853333 32.853333 0 0 0 22.4-39.466666 117.546667 117.546667 0 0 1 0-36.693334 126.506667 126.506667 0 0 1 5.12-19.626666l2.346667-6.4c1.92-3.626667 2.133333-4.053333 0 0l-16.213334 4.266666h4.48L469.333333 203.093333a44.586667 44.586667 0 0 1-11.093333 32.64h45.226667l-2.133334-2.56 8.96 22.826667c-1.706667-11.946667 15.146667-34.773333 25.6-45.653333L485.546667 170.666667a91.733333 91.733333 0 0 1-28.373334 28.16l48 27.733333c0 7.253333-1.066667 4.48 4.693334-1.066667l14.08-13.013333 27.733333-26.026667-50.346667-6.4a64 64 0 0 1 1.92 38.4 455.04 455.04 0 0 1-7.466666 50.773334l64 8.533333a96 96 0 0 1 2.56-21.76 97.92 97.92 0 0 1 3.626666-10.24l1.493334-2.986667-24.746667 3.2h4.053333l-13.44-8.32 2.986667 3.413334-8.32-14.08a83.84 83.84 0 0 1 1.92 37.12l61.653333 17.066666a153.813333 153.813333 0 0 1 18.56-65.493333l-11.306666 11.52 3.84-2.773333-44.586667-11.093334a101.546667 101.546667 0 0 1 0 29.44c0 13.013333-1.493333 25.813333-2.773333 38.826667h64c0-10.88-2.986667-40.32 3.84-46.506667l-22.613334 9.386667h3.626667l-16.213333-4.48c-4.693333-7.04-6.4-7.893333-4.693334-2.133333s0 5.973333 1.066667 8.96 0 11.52 0 17.28a287.573333 287.573333 0 0 1-2.133333 38.4h64c-1.493333-17.066667-3.626667-52.48 10.666666-65.066667l-14.08 8.32 4.053334-1.706667h-17.066667 4.48l-14.08-8.106666c-1.28-3.2-1.28-2.773333 0 1.493333s1.493333 7.253333 2.133333 10.88 1.28 13.866667 1.493334 21.333333a206.293333 206.293333 0 0 1-3.2 42.666667h61.653333a93.866667 93.866667 0 0 1 2.56-57.813333l-8.106667 14.08 2.986667-2.773334-22.613333 9.386667h4.266666l-16.213333-4.48 2.986667 2.133333-11.52-11.52a174.08 174.08 0 0 1 11.946666 39.893334l13.44 47.36c9.6 33.493333 65.706667 28.586667 62.933334-8.533334l-6.826667-90.026666-62.933333 8.533333 21.333333 55.253333a112.853333 112.853333 0 0 0 24.106667 44.8 32.426667 32.426667 0 0 0 54.613333-22.613333c-1.493333-35.84-19.413333-65.28-27.52-99.626667l-53.333333 31.146667a270.933333 270.933333 0 0 1 62.08 85.333333l50.346666-38.613333a213.333333 213.333333 0 0 1-42.666666-78.293333l-30.72 40.533333h4.906666l-16.213333-4.266667a269.226667 269.226667 0 0 1 74.666667 106.666667l50.346666-38.613333a136.533333 136.533333 0 0 1-32.213333-59.52l-53.333333 31.146666a178.773333 178.773333 0 0 1 38.613333 64 33.066667 33.066667 0 0 0 39.253333 21.333334 32.426667 32.426667 0 0 0 21.333334-39.466667l-18.56-55.253333-58.453334 24.533333 29.866667 51.2c17.706667 30.08 72.746667 9.813333 58.453333-24.746667l-17.706666-42.666666-58.453334 24.533333 17.28 29.226667c17.706667 29.866667 72.96 9.813333 58.453334-24.746667l-13.653334-32.853333-57.173333 25.386666a165.76 165.76 0 0 1 13.44 24.106667l55.466667-32.426667a57.6 57.6 0 0 1-5.76-8.32l-53.546667 31.146667 4.48 4.48c27.306667 28.16 64-7.253333 50.346667-38.613333L832 283.733333l-50.346667 38.826667a42.666667 42.666667 0 0 0 74.88-13.44l-8.32 14.293333 2.773334-2.986666-53.333334-31.146667a186.24 186.24 0 0 0 2.346667 78.293333c8.533333 34.133333 66.346667 28.16 64-8.533333l-2.133333-21.333333h-64l2.773333 24.746666a32.853333 32.853333 0 0 0 32 32 32 32 0 0 0 32-32l-2.773333-24.746666a33.28 33.28 0 0 0-32-32 32.213333 32.213333 0 0 0-32 32l2.133333 21.333333 62.72-8.32a106.666667 106.666667 0 0 1-2.346667-44.373333c4.906667-29.44-29.44-56.32-53.546666-31.146667a59.093333 59.093333 0 0 0-12.586667 21.333333l8.106667-14.293333-2.773334 2.773333 14.08-8.32L810.666667 277.333333h17.066666a31.573333 31.573333 0 0 0-42.666666-2.56 32.426667 32.426667 0 0 0-8.106667 41.173334l12.373333 29.013333 50.133334-38.826667-4.266667-4.48c-21.333333-21.333333-66.133333 0-53.546667 31.146667a112.213333 112.213333 0 0 0 11.946667 23.68 32.213333 32.213333 0 0 0 55.466667-32.426667 206.08 206.08 0 0 0-13.653334-24.106666 32.213333 32.213333 0 0 0-39.893333-13.013334 31.573333 31.573333 0 0 0-18.56 37.76l13.653333 32.853334 58.453334-24.533334-17.066667-29.226666c-17.706667-30.08-72.746667-9.813333-58.453333 24.533333l17.706666 42.666667 58.453334-24.533334-29.866667-51.2c-17.92-30.506667-70.4-10.666667-58.666667 24.533334l18.773334 55.466666 61.653333-17.066666a253.44 253.44 0 0 0-55.04-92.16 32.213333 32.213333 0 0 0-53.546667 31.146666 202.666667 202.666667 0 0 0 48.64 87.68c26.453333 28.373333 64-7.68 50.346667-38.826666a378.666667 378.666667 0 0 0-47.786667-78.506667c-18.56-23.893333-39.68-52.053333-71.04-55.893333a32 32 0 0 0-30.506666 40.533333 286.293333 286.293333 0 0 0 59.52 106.666667c25.386667 29.013333 64-8.106667 50.133333-38.826667a316.8 316.8 0 0 0-72.106667-97.92 32.213333 32.213333 0 0 0-53.546666 31.146667c6.4 27.733333 23.893333 53.973333 25.173333 82.56L746.666667 313.173333a90.24 90.24 0 0 1-13.226667-30.293333l-16-41.6A32.213333 32.213333 0 0 0 682.666667 218.453333a31.573333 31.573333 0 0 0-27.733334 31.36l6.4 90.026667 62.72-8.533333-21.333333-72.96c-6.186667-21.333333-14.933333-46.506667-41.6-47.36-54.4-2.133333-48 84.053333-39.893333 117.76a32.213333 32.213333 0 0 0 61.653333 0 262.613333 262.613333 0 0 0 3.84-81.706667c-2.986667-25.813333-7.04-57.813333-36.906667-65.066667-59.733333-14.72-70.186667 81.28-66.773333 119.68a32 32 0 0 0 64 0c4.053333-34.346667 10.24-103.893333-30.72-119.253333-54.613333-21.333333-64 64-61.226667 98.773333a32 32 0 0 0 64 0c3.2-31.146667 10.026667-72.32-6.613333-100.48a32.213333 32.213333 0 0 0-43.733333-11.52c-29.013333 18.986667-36.266667 64-40.533334 94.933334a32.64 32.64 0 0 0 21.333334 39.253333 32.213333 32.213333 0 0 0 39.466666-21.333333c5.12-32 8.533333-106.666667-43.733333-98.346667-40.32 5.973333-50.773333 62.293333-52.266667 95.573333s55.68 44.16 62.933334 8.533334c8.106667-41.386667 23.04-100.266667-1.066667-138.666667a32.213333 32.213333 0 0 0-50.133333-6.4c-24.533333 22.826667-64 48.213333-65.28 85.333333a32.213333 32.213333 0 0 0 48.213333 27.52 167.466667 167.466667 0 0 0 51.413333-50.986666A32 32 0 0 0 490.666667 164.906667c-25.386667 26.666667-64 81.493333-32.853334 116.053333a32 32 0 0 0 45.226667 0A112.426667 112.426667 0 0 0 533.333333 203.093333 32.426667 32.426667 0 0 0 500.906667 170.666667c-62.933333 0-65.28 96.853333-58.24 140.16l61.653333-17.066667a230.4 230.4 0 0 0-31.786667-79.146667c-21.333333-34.773333-77.653333-2.56-55.253333 32.213334z" fill="#89AA66" p-id="2013"></path><path d="M516.906667 125.226667l-2.773334 21.333333a24.746667 24.746667 0 0 0 16.64 29.653333 24.533333 24.533333 0 0 0 29.653334-16.853333 85.333333 85.333333 0 0 0 2.133333-31.36 24.106667 24.106667 0 0 0-47.146667-6.186667A88.746667 88.746667 0 0 0 510.293333 149.333333a23.466667 23.466667 0 0 0 21.333334 23.466667 24.746667 24.746667 0 0 0 26.453333-17.066667 79.36 79.36 0 0 0 3.84-20.053333c2.133333-26.666667-42.666667-33.066667-47.146667-6.4a101.76 101.76 0 0 0 17.066667 83.2c22.4 24.32 57.386667 7.04 82.773333-2.773333a24.106667 24.106667 0 1 0-12.8-46.293334 54.613333 54.613333 0 0 1-27.52 2.773334l6.4 47.146666 5.973334-1.92a24.32 24.32 0 0 0 5.76-43.946666l-25.386667-12.373334a24.106667 24.106667 0 0 0-24.32 41.386667c32.64 21.333333 69.12 4.693333 96.64-16.213333l-29.653333-36.693334a65.706667 65.706667 0 0 0-16 19.2A24.106667 24.106667 0 0 0 631.253333 192l37.76-30.506667-40.106666-23.253333a301.226667 301.226667 0 0 1-17.066667 62.506667 24.106667 24.106667 0 0 0 23.04 30.506666 433.493333 433.493333 0 0 1 49.92 1.493334V184.746667l10.453333 6.186666-2.346666-1.92-16.853334 40.96 21.333334 2.133334c26.88 3.2 32.853333-42.666667 6.4-47.146667a200.32 200.32 0 0 1-34.56-10.24l-6.4 47.146667a97.92 97.92 0 0 1 19.2 3.413333 51.2 51.2 0 0 0 25.386666-1.92c8.533333-2.773333 21.333333-14.933333 28.586667-14.933333l-22.826667-30.506667c-5.973333 20.053333-12.586667 39.68-19.84 59.306667-9.386667 25.6 31.146667 42.666667 43.946667 18.56a42.666667 42.666667 0 0 0 4.053333-30.506667L711.893333 256a114.773333 114.773333 0 0 1 25.6 11.52c19.413333 11.52 47.36-12.586667 32.853334-32.853333a177.706667 177.706667 0 0 1-10.88-17.066667l-32.64 32.853333c30.506667 13.866667 64 25.6 95.786666 5.76L789.333333 222.293333a321.493333 321.493333 0 0 0-32.213333 60.373334c-10.666667 25.6 30.293333 40.96 43.946667 18.56l3.84-6.613334-43.52-17.28-8.533334 37.333334c-6.826667 30.08 39.253333 42.666667 46.293334 12.8l8.533333-37.333334a24.106667 24.106667 0 0 0-42.666667-18.56l-3.84 6.4 42.666667 18.56A267.306667 267.306667 0 0 1 832 246.613333c13.653333-19.84-13.226667-45.44-32.853333-32.853333-15.146667 9.6-32.853333 0-47.36-5.973333a24.32 24.32 0 0 0-32.853334 32.853333 178.986667 178.986667 0 0 0 10.666667 17.28l32.853333-32.853333A172.586667 172.586667 0 0 0 725.333333 208.64a24.32 24.32 0 0 0-29.653333 29.44v4.053333-10.666666l43.946667 18.56c7.253333-19.626667 13.866667-39.253333 19.84-59.306667a24.106667 24.106667 0 0 0-23.253334-30.293333 68.693333 68.693333 0 0 0-37.973333 14.293333c-11.093333 6.826667-21.333333-1.28-35.2 0a24.106667 24.106667 0 0 0-6.186667 47.146667 194.773333 194.773333 0 0 0 34.56 10.24l6.186667-47.146667-21.333333-2.133333c-19.626667-1.28-33.493333 28.373333-17.066667 40.96a36.906667 36.906667 0 0 0 25.173333 9.813333 24.106667 24.106667 0 0 0 0-48 433.493333 433.493333 0 0 0-49.92-1.493333L658.133333 213.333333a304.853333 304.853333 0 0 0 17.066667-62.506666A24.32 24.32 0 0 0 635.093333 128L597.333333 158.08l37.76 29.013333a28.373333 28.373333 0 0 1 8.533334-9.6c21.333333-16.853333-7.253333-53.973333-29.013334-37.76-12.586667 9.6-31.786667 27.093333-48.213333 16.213334l-24.32 41.386666 25.6 12.373334 5.76-42.666667-5.973333 1.92a24.106667 24.106667 0 0 0 6.186666 47.146667 86.4 86.4 0 0 0 40.32-4.48l-12.8-46.293334c-7.466667 2.986667-14.933333 5.76-22.613333 8.32l-11.306667 3.626667a30.08 30.08 0 0 1-4.693333 1.28c-4.48 0-2.986667 2.133333 4.48 4.053333 0 0-5.76-14.72-6.186667-16.853333a62.08 62.08 0 0 1 0-21.333333l-47.146666-6.4a21.333333 21.333333 0 0 1-2.133334 7.253333l47.146667 6.4a48.426667 48.426667 0 0 1 3.413333-15.36L514.56 128a53.333333 53.333333 0 0 1 0 17.493333l46.293333 12.8 2.773334-21.333333a24.96 24.96 0 0 0-16.64-29.653333 24.32 24.32 0 0 0-29.653334 16.853333z" fill="#89AA66" p-id="2014"></path><path d="M266.24 229.76m-27.306667 0a27.306667 27.306667 0 1 0 54.613334 0 27.306667 27.306667 0 1 0-54.613334 0Z" fill="#040000" p-id="2015"></path><path d="M592.64 935.253333a239.36 239.36 0 0 1-100.906667-21.333333 254.293333 254.293333 0 0 1-90.666666-78.08 253.44 253.44 0 0 1 0-277.333333 244.693333 244.693333 0 0 1 170.666666-104.533334 264.533333 264.533333 0 0 1 62.506667 0 339.2 339.2 0 0 1-59.946667-18.133333c-17.28-7.68-24.533333-13.866667-25.386666-21.333333a75.093333 75.093333 0 0 1 6.4-25.386667c1.28-4.053333 2.773333-8.32 4.266666-12.8h-116.053333a164.053333 164.053333 0 0 0-11.52 26.88 51.413333 51.413333 0 0 1-14.506667 25.6c-16.426667 11.946667-67.2 11.306667-96.426666 5.76a57.386667 57.386667 0 0 1-38.613334-19.413333 48.213333 48.213333 0 0 1 0-37.973334c-92.373333 1.92-136.106667 1.066667-164.48-33.493333a128 128 0 0 1 0-145.92 135.893333 135.893333 0 0 1 144.853334-56.32A194.773333 194.773333 0 0 1 298.666667 104.32a98.346667 98.346667 0 0 1 93.866666-11.52A68.053333 68.053333 0 0 1 429.013333 128a88.32 88.32 0 0 1 4.906667 21.333333 52.693333 52.693333 0 0 0 3.2 14.506667 60.8 60.8 0 0 0 28.586667-4.693333C525.013333 85.333333 540.373333 85.333333 545.92 86.826667c16.853333 1.706667 22.4 23.253333 27.946667 44.16 1.066667 4.053333 2.56 9.6 3.84 13.653333l21.333333-11.093333c33.92-17.28 56.96-28.373333 69.973333-25.6 18.56 4.053333 17.28 27.52 16.213334 44.8v7.253333c4.48 0 10.453333-2.986667 15.146666-4.48 24.96-8.106667 42.666667-13.44 55.68-7.68 16.213333 7.253333 13.44 27.306667 11.52 40.32a73.813333 73.813333 0 0 0-1.28 11.093333h21.333334a106.666667 106.666667 0 0 1 53.546666 6.826667 17.92 17.92 0 0 1 7.893334 12.8c1.493333 11.733333-7.893333 24.32-21.333334 38.826667 19.413333 0 34.133333 0 42.666667 8.746666s2.986667 25.386667-2.986667 38.826667v2.346667c32.853333 80.426667 94.293333 275.626667 6.186667 445.44a328.32 328.32 0 0 1-112.853333 130.773333 322.133333 322.133333 0 0 1-168.106667 51.413333z m7.893333-461.866666a228.48 228.48 0 0 0-26.666666 1.493333 222.933333 222.933333 0 0 0-155.946667 95.146667 231.253333 231.253333 0 0 0 0 253.013333 236.373333 236.373333 0 0 0 81.28 70.4 210.133333 210.133333 0 0 0 54.186667 17.066667A285.866667 285.866667 0 0 0 746.666667 866.346667a310.186667 310.186667 0 0 0 106.666666-122.88c85.333333-164.906667 21.333333-356.906667-8.533333-431.786667a10.666667 10.666667 0 0 1 0-8.106667l2.773333-6.826666a74.88 74.88 0 0 0 5.973334-15.573334 115.2 115.2 0 0 0-25.386667-1.92c-19.413333 0-25.813333 0-30.08-5.76s0-14.08 8.746667-23.253333l2.133333-2.346667a138.88 138.88 0 0 0 18.986667-24.746666 140.373333 140.373333 0 0 0-38.613334-2.346667 196.906667 196.906667 0 0 1-23.253333 0 23.68 23.68 0 0 1-11.946667-3.413333 14.72 14.72 0 0 1-7.466666-12.8 56.32 56.32 0 0 1 0-19.413334 47.786667 47.786667 0 0 0 0-18.133333 113.706667 113.706667 0 0 0-39.893334 8.746667c-19.2 6.186667-28.8 9.173333-36.053333 4.48s-7.253333-15.146667-6.613333-28.8a68.266667 68.266667 0 0 0 0-23.466667 340.053333 340.053333 0 0 0-54.4 24.533333 167.893333 167.893333 0 0 1-33.28 14.933334 14.293333 14.293333 0 0 1-7.253334 0c-8.746667-3.2-11.52-14.08-15.786666-30.293334a100.48 100.48 0 0 0-9.813334-27.733333 336.426667 336.426667 0 0 0-62.72 65.493333 8.106667 8.106667 0 0 1-3.84 3.2 80.213333 80.213333 0 0 1-44.586666 7.253334 12.373333 12.373333 0 0 1-3.626667-1.28c-12.586667-5.546667-14.506667-19.413333-16-31.573334a85.333333 85.333333 0 0 0-3.626667-17.493333A48.853333 48.853333 0 0 0 384 112.213333a78.293333 78.293333 0 0 0-71.893333 8.96 180.906667 180.906667 0 0 0-34.986667 37.333334 10.453333 10.453333 0 0 1-11.733333 4.48 114.56 114.56 0 0 0-128 45.653333 108.16 108.16 0 0 0 0 120.746667c23.253333 28.16 64 27.306667 162.773333 25.173333h2.56a10.453333 10.453333 0 0 1 9.6 5.546667 11.306667 11.306667 0 0 1 0 11.093333 41.173333 41.173333 0 0 0-8.533333 32 45.866667 45.866667 0 0 0 24.32 9.6 168.106667 168.106667 0 0 0 80-2.133333 66.346667 66.346667 0 0 0 6.826666-15.573334 178.133333 178.133333 0 0 1 16.426667-36.053333 10.666667 10.666667 0 0 1 9.173333-4.906667h22.613334c56.106667 0 96.426667 0 114.346666 1.493334a10.453333 10.453333 0 0 1 7.68 4.48 10.666667 10.666667 0 0 1 1.706667 8.746666c-2.56 9.386667-5.76 18.773333-8.32 26.88s-3.84 11.093333-4.906667 14.72c15.573333 11.733333 89.386667 32 101.973334 24.746667a57.386667 57.386667 0 0 0 17.92-27.733333 10.88 10.88 0 0 1 6.613333-6.4 11.306667 11.306667 0 0 1 9.386667 1.493333 215.04 215.04 0 0 1 42.666666 37.973333c60.8 72.746667 49.92 164.48 42.666667 200.32a201.173333 201.173333 0 0 1-55.04 109.013334c-25.386667 24.746667-77.44 64-140.16 48.64a125.44 125.44 0 0 1-85.333333-71.68 122.026667 122.026667 0 0 1 7.893333-103.466667c21.333333-38.826667 72.746667-72.96 123.306667-59.733333a87.893333 87.893333 0 0 1 68.48 72.746666A80.64 80.64 0 0 1 682.666667 697.173333a49.92 49.92 0 0 1-61.013334 7.893334 38.186667 38.186667 0 0 1 14.08-70.613334 10.453333 10.453333 0 0 1 12.586667 8.32 10.666667 10.666667 0 0 1-8.533333 12.586667 18.986667 18.986667 0 0 0-14.933334 12.586667 19.626667 19.626667 0 0 0 8.96 19.626666 29.226667 29.226667 0 0 0 35.2-4.906666 60.373333 60.373333 0 0 0 21.333334-43.946667 67.413333 67.413333 0 0 0-52.48-53.333333c-40.32-10.666667-81.493333 17.706667-99.626667 49.92a100.693333 100.693333 0 0 0-6.4 85.333333 103.68 103.68 0 0 0 70.186667 59.093333c52.693333 13.013333 97.92-21.333333 120.106666-42.666666A173.653333 173.653333 0 0 0 768 645.546667a7.893333 7.893333 0 0 1 0-4.48 165.12 165.12 0 0 0-35.413333-113.066667 165.546667 165.546667 0 0 0-132.053334-54.613333z m46.08-17.066667a174.08 174.08 0 0 1 101.973334 58.026667 165.973333 165.973333 0 0 1 25.6 42.666666 182.826667 182.826667 0 0 0-69.333334-128 69.333333 69.333333 0 0 1-19.413333 24.533334 57.173333 57.173333 0 0 1-38.826667 2.773333z m117.333334-257.706667z" fill="#040000" p-id="2016"></path><path d="M827.946667 279.253333a10.24 10.24 0 0 1-8.533334-4.266666l-10.666666-13.013334a10.666667 10.666667 0 0 1 15.786666-14.08 156.8 156.8 0 0 1 11.946667 14.293334 10.88 10.88 0 0 1-2.133333 14.933333 10.453333 10.453333 0 0 1-6.4 2.133333zM574.506667 167.68h-2.773334a10.666667 10.666667 0 0 1 1.28-21.333333 21.333333 21.333333 0 0 1 6.4 1.493333 10.666667 10.666667 0 0 1-4.906666 21.333333z" fill="#040000" p-id="2017"></path></svg>